<svg width="210mm" height="297mm" version="1.1" viewBox="0 0 210 297" xmlns="http://www.w3.org/2000/svg">
 <g fill="#fff" aria-label="CW&amp;T">
  <path d="m49.909 55.049q0.09102 0 0.15452-0.02963 0.06562-0.03175 0.10583-0.08255 0.04233-0.05292 0.06138-0.11853 0.02117-0.06773 0.02117-0.14182v-0.0254h0.1778v0.0254q0 0.11218-0.03387 0.21167-0.03387 0.09737-0.09948 0.17145-0.06562 0.07197-0.16298 0.1143-0.09737 0.04022-0.22437 0.04022-0.24553 0-0.38312-0.15452-0.13758-0.15452-0.13758-0.45085v-0.3302q0-0.28787 0.13758-0.44662 0.13758-0.15875 0.38312-0.15875 0.127 0 0.22437 0.04233 0.09737 0.04022 0.16298 0.1143 0.06562 0.07197 0.09948 0.17145 0.03387 0.09737 0.03387 0.20955v0.0254h-0.1778v-0.0254q-0.0021-0.07197-0.02328-0.1397-0.01905-0.06773-0.06138-0.11853-0.04022-0.05292-0.10372-0.08255-0.0635-0.03175-0.15452-0.03175-0.17145 0-0.25823 0.12488-0.08467 0.12488-0.08467 0.32808v0.3048q0 0.21802 0.08467 0.33655 0.08678 0.11642 0.25823 0.11642z"/>
  <path d="m51.668 55.185h-0.32385l-0.13758-1.4055h-0.0254l-0.13758 1.4055h-0.32385l-0.15028-1.4817h0.16087l0.14182 1.4055h0.0254l0.13335-1.4055h0.32597l0.13335 1.4055h0.0254l0.14182-1.4055h0.16087z"/>
  <path d="m53.068 54.524h-0.20532v0.6604h-0.47413q-0.10583 0-0.18838-0.02963t-0.13758-0.08043q-0.05503-0.05292-0.08467-0.12277-0.02752-0.07197-0.02752-0.15452v-0.0254q0-0.12065 0.07197-0.2032 0.07197-0.08467 0.1778-0.1143v-0.0254q-0.10583-0.02752-0.1778-0.11007-0.07197-0.08467-0.07197-0.20532v-0.0254q0-0.08255 0.02752-0.1524 0.02963-0.07197 0.08467-0.12277 0.05503-0.0508 0.13758-0.08043 0.08255-0.02963 0.18838-0.02963h0.27093v0.1651h-0.25823q-0.12488 0-0.2032 0.0635-0.07832 0.06138-0.07832 0.16933v0.0127q0 0.1143 0.07408 0.17992 0.07408 0.06562 0.20108 0.06562h0.28998v-0.22437h0.1778v0.22437h0.20532zm-0.38312 0.4953v-0.4953h-0.28998q-0.127 0-0.20108 0.06773-0.07408 0.06562-0.07408 0.17992v0.0127q0 0.11007 0.07832 0.17357 0.07832 0.06138 0.2032 0.06138z"/>
  <path d="m53.262 53.703h1.0414v0.1651h-0.4318v1.3166h-0.1778v-1.3166h-0.4318z"/>
 </g>
</svg>
